<svg width="230" height="52" viewBox="0 0 230 52" fill="none" xmlns="http://www.w3.org/2000/svg">
<path fill-rule="evenodd" clip-rule="evenodd" d="M25.5527 0C39.6651 0 51.1054 11.4404 51.1055 25.5528C51.1055 39.6653 39.6652 51.1056 25.5527 51.1056C11.4403 51.1056 0 39.6652 0 25.5528C4.09557e-05 11.4404 11.4404 4.09534e-05 25.5527 0ZM23.4614 4.25454L6.40451 34.6713L8.51379 38.3268H42.5907L42.585 38.324L44.7114 34.641L27.6431 4.25454H23.4614Z" fill="white"/>
<path d="M72.2968 42.6468V8.53955H86.6742C92.8135 8.53955 97.2737 13.0522 97.2737 19.244C97.2737 25.4883 92.7086 30.0534 86.4644 30.0534H76.7045V42.6468H72.2968ZM76.7045 25.8556H86.4644C90.0325 25.8556 92.6561 23.127 92.6561 19.2965C92.6561 15.466 90.0325 12.7374 86.4644 12.7374H76.7045V25.8556Z" fill="white"/>
<path d="M113.36 42.6468V32.3622L100.504 8.53955H105.647L115.564 27.1149L124.642 8.53955H129.679L117.768 32.3622V42.6468H113.36Z" fill="white"/>
<path d="M135.219 42.6468V8.53955H150.856C156.785 8.53955 161.035 12.8423 161.035 18.7717C161.035 23.5992 158.254 27.2723 154.004 28.5317L161.875 42.6468H156.628L149.281 28.9515H139.626V42.6468H135.219ZM139.626 24.8586H150.436C153.899 24.8586 156.418 22.3399 156.418 18.8242C156.418 15.3085 154.004 12.7374 150.646 12.7374H139.626V24.8586Z" fill="white"/>
<path d="M177.102 42.6468V32.3622L164.246 8.53955H169.389L179.306 27.1149L188.384 8.53955H193.421L181.51 32.3622V42.6468H177.102Z" fill="white"/>
<path d="M191.405 42.6468L204.838 8.53955H209.456L222.889 42.6468H217.852L214.336 33.4116H199.906L196.443 42.6468H191.405ZM201.48 29.2138H212.709L207.042 14.3116L201.48 29.2138Z" fill="white"/>
<path d="M226.32 10.1893C226.818 10.1893 227.208 10.2974 227.49 10.5136C227.782 10.7204 227.927 11.0118 227.927 11.3878C227.927 11.6604 227.852 11.8907 227.702 12.0787C227.551 12.2667 227.344 12.3936 227.081 12.4594L228.082 14.0528H227.265L226.362 12.5581H225.756V14.0528H225.037V10.1893H226.32ZM226.433 11.9518C226.686 11.9518 226.879 11.9001 227.011 11.7967C227.152 11.6933 227.222 11.5476 227.222 11.3596C227.222 11.181 227.152 11.0447 227.011 10.9507C226.879 10.8567 226.686 10.8097 226.433 10.8097H225.756V11.9518H226.433ZM226.447 15.6743C225.798 15.6743 225.201 15.5145 224.656 15.1949C224.12 14.8753 223.693 14.4429 223.373 13.8977C223.053 13.3431 222.893 12.7414 222.893 12.0928C222.893 11.4536 223.053 10.8614 223.373 10.3162C223.693 9.77098 224.12 9.33857 224.656 9.01896C225.201 8.69935 225.798 8.53955 226.447 8.53955C227.095 8.53955 227.688 8.69935 228.223 9.01896C228.769 9.33857 229.201 9.77098 229.521 10.3162C229.84 10.8614 230 11.4536 230 12.0928C230 12.7414 229.84 13.3431 229.521 13.8977C229.201 14.4429 228.769 14.8753 228.223 15.1949C227.688 15.5145 227.095 15.6743 226.447 15.6743ZM226.447 14.8706C226.945 14.8706 227.406 14.7484 227.829 14.504C228.252 14.2502 228.585 13.9118 228.83 13.4888C229.084 13.0564 229.21 12.591 229.21 12.0928C229.21 11.5946 229.084 11.1387 228.83 10.7251C228.585 10.3021 228.252 9.96838 227.829 9.72398C227.406 9.47017 226.945 9.34327 226.447 9.34327C225.949 9.34327 225.488 9.47017 225.065 9.72398C224.642 9.96838 224.304 10.3021 224.05 10.7251C223.805 11.1387 223.683 11.5946 223.683 12.0928C223.683 12.591 223.805 13.0564 224.05 13.4888C224.304 13.9118 224.642 14.2502 225.065 14.504C225.488 14.7484 225.949 14.8706 226.447 14.8706Z" fill="white"/>
</svg>
